# xmcd
#
# Track frame offsets:
#	150
#	12151
#	27452
#	39827
#	43578
#	51078
#	68929
#	92479
#	111905
#	131930
#	149893
#	159870
#	173861
#
# Disc length: 2616 seconds
#
# Revision: 1
# Processed by: cddbd v1.5.1PL2 Copyright (c) Steve Scherf et al.
# Submitted via: audiograbber 1.83.01
#
DISCID=b20a360d
DTITLE=Tumi and the Volume - Live at the Bassline
DYEAR=2003
DGENRE=Hip-Hop
TTITLE0=Yvonne 
TTITLE1=People, People
TTITLE2=My Posters
TTITLE3=Celebration 
TTITLE4=The Story Behind the Paint
TTITLE5=Never Deny You 
TTITLE6=76 f/Pebbles
TTITLE7=Four f/Marcus Wyatt
TTITLE8=What You Got For Me?
TTITLE9=She Spirit Fancies
TTITLE10=Welcome 
TTITLE11=Chameleon 
TTITLE12=People of the Light f/Pebbles
EXTD=A lot of live albums seem to lack the punch normally associated with a liv
EXTD=e show - not this. Playing to a good-natured, reasonably sized crowd, the 
EXTD=Volume rewrite the book on live albums. Tumi showcases his considerable po
EXTD=etic talent as he kicks off with the spoken word piece 'Yvonne', the story
EXTD=of a girl who he met at the bus stop and who later who got raped. He star
EXTD=ts off by explaining how he met her, then flips to the girl Yvonne's persp
EXTD=ective for the rape scene. It's sobering and joyous at the same time, and 
EXTD=proves Tumi to be a \nworldclass talent. \nhttp://www.hiphocalypse.co.nr/
EXTT0=
EXTT1=
EXTT2=
EXTT3=
EXTT4=
EXTT5=
EXTT6=
EXTT7=
EXTT8=
EXTT9=
EXTT10=
EXTT11=
EXTT12=
PLAYORDER=
